<?xml version="1.0" encoding="UTF-8"?>
<svg width="30px" height="30px" viewBox="0 0 30 30" version="1.1" xmlns="http://www.w3.org/2000/svg" xmlns:xlink="http://www.w3.org/1999/xlink">
    <title>切片</title>
    <g id="页面-1" stroke="none" stroke-width="1"  fill-rule="evenodd">
        <g id="驾驶舱-随访列表" transform="translate(-240.000000, -217.000000)"  fill-rule="nonzero">
            <g id="驾驶舱" transform="translate(0.000000, 210.000000)">
                <g id="下拉" transform="translate(240.000000, 7.000000)">
                    <path d="M23,11.9486127 C23.0006098,12.1999947 22.9018623,12.4413059 22.7255158,12.6193679 L15.6674232,19.7214817 C15.4908436,19.8997806 15.2509814,20 15.0008255,20 C14.7506696,20 14.5108074,19.8997806 14.3342279,19.7214817 L7.27613526,12.6193679 C7.03798286,12.3797302 6.94497376,12.0304505 7.03214358,11.7030993 C7.11931341,11.375748 7.373419,11.1200576 7.69874123,11.0323441 C8.02406345,10.9446306 8.37117814,11.0382198 8.60933054,11.2778575 L15.0008255,17.7092161 L21.3923205,11.2778575 C21.6642037,11.032722 22.0524488,10.967922 22.3884254,11.1116026 C22.724402,11.2552832 22.9474869,11.581519 22.9607855,11.9486127 L23,11.9486127 Z" id="路径"></path>
                </g>
            </g>
        </g>
    </g>
</svg>