<?xml version="1.0" encoding="UTF-8"?>
<svg width="30px" height="30px" viewBox="0 0 30 30" version="1.1" xmlns="http://www.w3.org/2000/svg" xmlns:xlink="http://www.w3.org/1999/xlink">
    <title>切片</title>
    <g id="页面-1" stroke="none" stroke-width="1" fill="none" fill-rule="evenodd">
        <g id="驾驶舱-数据看板" transform="translate(-542.000000, -173.000000)" fill="#9699DC" fill-rule="nonzero">
            <g id="数据" transform="translate(330.000000, 138.000000)">
                <g id="时间" transform="translate(192.000000, 30.000000)">
                    <g id="日历" transform="translate(20.000000, 5.000000)">
                        <g id="编组" transform="translate(7.000000, 7.000000)">
                            <path d="M11.6363636,11.6363636 L4.36363637,11.6363636 C3.96363636,11.6363636 3.63636363,11.9636364 3.63636363,12.3636364 C3.63636363,12.7636364 3.96363636,13.0909091 4.36363637,13.0909091 L11.6363636,13.0909091 C12.0363636,13.0909091 12.3636364,12.7636364 12.3636364,12.3636364 C12.3636364,11.9636364 12.0363636,11.6363636 11.6363636,11.6363636 Z M11.6363636,8.72727273 L4.36363637,8.72727273 C3.96363636,8.72727273 3.63636363,9.05454546 3.63636363,9.45454545 C3.63636363,9.85454544 3.96363636,10.1818182 4.36363637,10.1818182 L11.6363636,10.1818182 C12.0363636,10.1818182 12.3636364,9.85454546 12.3636364,9.45454545 C12.3636364,9.05454544 12.0363636,8.72727273 11.6363636,8.72727273 Z" id="形状"></path>
                            <path d="M13.0909091,1.45454545 L11.6363636,1.45454545 L11.6363636,0.727272716 C11.6363636,0.32727271 11.3090909,0 10.9090909,0 C10.5090909,0 10.1818182,0.327272728 10.1818182,0.727272716 L10.1818182,1.45454545 L5.81818182,1.45454545 L5.81818182,0.727272716 C5.81818182,0.32727271 5.49090909,0 5.09090908,0 C4.69090908,0 4.36363635,0.327272728 4.36363637,0.727272716 L4.36363637,1.45454545 L2.9090909,1.45454545 C1.30909091,1.45454545 0,2.76363636 0,4.36363637 L0,13.0909091 C0,14.6981818 1.30909091,16 2.9090909,16 L13.0909091,16 C14.6981818,16 16,14.6909091 16,13.0909091 L16,4.36363637 C16,2.76363636 14.6909091,1.45454545 13.0909091,1.45454545 Z M2.9090909,2.9090909 L4.36363637,2.9090909 L4.36363637,3.63636363 C4.36363637,4.03636364 4.69090909,4.36363637 5.09090908,4.36363637 C5.49090907,4.36363637 5.81818182,4.03636364 5.81818182,3.63636363 L5.81818182,2.9090909 L10.1818182,2.9090909 L10.1818182,3.63636363 C10.1818182,4.03636364 10.5090909,4.36363637 10.9090909,4.36363637 C11.3090909,4.36363637 11.6363637,4.03636364 11.6363636,3.63636363 L11.6363636,2.9090909 L13.0909091,2.9090909 C13.8909091,2.9090909 14.5454546,3.56363635 14.5454546,4.36363637 L14.5454546,5.81818182 L1.45454545,5.81818182 L1.45454545,4.36363637 C1.45454545,3.56363637 2.1090909,2.9090909 2.9090909,2.9090909 Z M13.0909091,14.5454546 L2.9090909,14.5454546 C2.1090909,14.5454546 1.45454545,13.8909091 1.45454545,13.0909091 L1.45454545,7.27272727 L14.5454546,7.27272727 L14.5454546,13.0909091 C14.5454546,13.8909091 13.8909091,14.5454546 13.0909091,14.5454546 Z" id="形状"></path>
                        </g>
                    </g>
                </g>
            </g>
        </g>
    </g>
</svg>