<?xml version="1.0" encoding="UTF-8"?>
<svg width="30px" height="30px" viewBox="0 0 30 30" version="1.1" xmlns="http://www.w3.org/2000/svg" xmlns:xlink="http://www.w3.org/1999/xlink">
    <title>切片</title>
    <g id="页面-1" stroke="none" stroke-width="1"  fill-rule="evenodd">
        <g id="患者管理-人工导入" transform="translate(-380.000000, -228.000000)"  fill-rule="nonzero">
            <g id="计划" transform="translate(330.000000, 138.000000)">
                <g id="编组" transform="translate(50.000000, 90.000000)">
                    <g id="编组" transform="translate(7.000000, 8.000000)">
                        <path d="M12.9137778,4.97522026 L12.8853333,4.86068282 C12.8853333,2.18515969 10.7146667,0 8.05688889,0 C5.39911111,0 3.22844444,2.18515969 3.22844444,4.86068282 L3.08622222,4.97522026 C1.31377778,5.40652533 0,7.01720815 0,8.94465859 C0,11.1888767 1.79911111,13 4.02844444,13 L12,13 C14.2293333,13 16,11.1888767 16,8.94465859 C16,7.01720815 14.6862222,5.40652533 12.9137778,4.97522026 Z M11.3137778,7.59347467 L8.4,10.4980727 C8.34311111,10.526707 8.31466667,10.5553414 8.25777778,10.5839758 C8.20088889,10.6126101 8.11555556,10.6412445 8.02844444,10.6412445 C7.94133333,10.6412445 7.88622222,10.6126101 7.79911111,10.5839758 C7.74222222,10.5553414 7.65688889,10.526707 7.59822222,10.4694383 L4.85688889,7.65074339 C4.74311111,7.53620595 4.68622222,7.39124449 4.68622222,7.24807269 C4.68622222,7.10490088 4.74311111,6.95993943 4.85688889,6.84540198 C5.08622222,6.61453744 5.42755556,6.61453744 5.65688889,6.84540198 L7.48622222,8.68694934 L7.48622222,4.57254956 C7.48622222,4.25578194 7.744,3.99807269 8.05688889,3.99807269 C8.36977778,3.99807269 8.62755556,4.25757159 8.62755556,4.57254956 L8.62755556,8.68515969 L10.5137778,6.78634361 C10.6275556,6.67180617 10.7715556,6.61453744 10.9137778,6.61453744 C11.056,6.61453744 11.2,6.67180617 11.3137778,6.78634361 C11.4275556,6.90088106 11.4844444,7.04584251 11.4844444,7.18901432 C11.4844444,7.33218612 11.4293333,7.47714758 11.3137778,7.59347467 L11.3137778,7.59347467 Z" id="形状"></path>
                    </g>
                </g>
            </g>
        </g>
    </g>
</svg>