<?xml version="1.0" encoding="UTF-8"?>
<svg width="22px" height="22px" viewBox="0 0 22 22" version="1.1" xmlns="http://www.w3.org/2000/svg" xmlns:xlink="http://www.w3.org/1999/xlink">
    <title>切片</title>
    <g id="页面-1" stroke="none" stroke-width="1" fill="none" fill-rule="evenodd">
        <g id="素材管理-新建的素材编辑图片" transform="translate(-703.000000, -566.000000)" fill="#7076ED" fill-rule="nonzero">
            <g id="编组" transform="translate(330.000000, 488.000000)">
                <g id="人数" transform="translate(200.000000, 74.333333)">
                    <g id="编辑" transform="translate(170.800000, 0.000000)">
                        <g id="编组" transform="translate(8.200000, 8.666667)">
                            <path d="M8.3847322,12 L2.61561341,12 C1.17336252,12 0,10.8064453 0,9.33972656 L0,2.66027344 C0,1.19355469 1.17324731,0 2.61561341,0 L6.98810247,0 C7.29270438,0 7.53970382,0.251367187 7.53970382,0.56109375 C7.53970382,0.870820313 7.29258918,1.1221875 6.98810247,1.1221875 L2.61561341,1.1221875 C1.78164471,1.1221875 1.1033179,1.81230469 1.1033179,2.66015625 L1.1033179,9.33960938 C1.1033179,10.1874609 1.78175991,10.8775781 2.61561341,10.8775781 L8.38484741,10.8775781 C9.21835529,10.8775781 9.8967973,10.1874609 9.8967973,9.33960938 C9.8967973,9.02976562 10.1439119,8.77851563 10.4483987,8.77851563 C10.7530006,8.77851563 11,9.02988281 11,9.33960938 C11,10.8064453 9.82675269,12 8.3847322,12 Z" id="路径"></path>
                            <path d="M5.06417964,7.87886719 C4.92305356,7.87886719 4.78192748,7.82402344 4.67421085,7.71445313 C4.45877757,7.4953125 4.45877757,7.14011719 4.67421085,6.92097656 L9.7132758,1.79519531 C9.92870908,1.57605469 10.2778953,1.57605469 10.4933286,1.79519531 C10.7087619,2.01433594 10.7087619,2.36953125 10.4933286,2.58867188 L5.45426363,7.71445313 C5.34643179,7.82402344 5.20530571,7.87886719 5.06417964,7.87886719 L5.06417964,7.87886719 Z" id="路径"></path>
                        </g>
                    </g>
                </g>
            </g>
        </g>
    </g>
</svg>