<?xml version="1.0" encoding="UTF-8"?>
<svg width="30px" height="30px" viewBox="0 0 30 30" version="1.1" xmlns="http://www.w3.org/2000/svg" xmlns:xlink="http://www.w3.org/1999/xlink">
    <title>切片</title>
    <g id="页面-1" stroke="none" stroke-width="1"  fill-rule="evenodd">
        <g id="随访方案-单次" transform="translate(-1714.000000, -303.000000)"  fill-rule="nonzero">
            <g id="计划" transform="translate(330.000000, 138.000000)">
                <g id="选择模板" transform="translate(1384.000000, 165.000000)">
                    <g id="编组" transform="translate(8.000000, 8.000000)">
                        <path d="M1.9524294e-06,5.38474998 L3.76950143,5.38474998 L3.76950143,14 L0.538126877,14 C0.245979772,14.0000869 0.00712747898,13.7670602 1.9524294e-06,13.475 L1.9524294e-06,5.38474998 Z M14,5.38474998 L14,13.461875 C14,13.7590732 13.7590733,14 13.4618751,14 L4.84575128,14 L4.84575128,5.38474998 L14,5.38474998 Z M13.4618751,0 C13.7590733,0 14.000001,0.240926768 14.000001,0.538124998 L14.000001,4.30762499 L9.74485799e-07,4.30762499 L9.74485799e-07,0.538124998 C-0.000550156742,0.245788813 0.232741203,0.00666513645 0.525001879,0 L13.4618751,0 Z" id="形状"></path>
                    </g>
                </g>
            </g>
        </g>
    </g>
</svg>