<?xml version="1.0" encoding="UTF-8"?>
<svg width="30px" height="30px" viewBox="0 0 30 30" version="1.1" xmlns="http://www.w3.org/2000/svg" xmlns:xlink="http://www.w3.org/1999/xlink">
    <title>切片</title>
    <g id="页面-1" stroke="none" stroke-width="1" fill="none" fill-rule="evenodd">
        <g id="素材管理-新建的素材编辑图片" transform="translate(-480.000000, -518.000000)">
            <g id="编组" transform="translate(330.000000, 488.000000)">
                <g id="删除" transform="translate(150.000000, 30.000000)">
                    <path d="M0,0 L20,0 C25.5228475,-1.01453063e-15 30,4.4771525 30,10 L30,30 L30,30 L20,30 C8.954305,30 1.3527075e-15,21.045695 0,10 L0,0 L0,0 Z" id="矩形" fill-opacity="0.4" fill="#000000"></path>
                    <path d="M10.1830643,9.16887296 L10.2224472,9.20451424 L15.0880166,14.0005591 L19.7745731,9.38130906 C20.0465152,9.11066639 20.4872823,9.10154425 20.7705108,9.36069709 C21.0537394,9.61984993 21.0772297,10.0537654 20.8235884,10.3411532 L20.7877859,10.3799705 L16.1005133,14.9985147 L20.7874278,19.6177648 C21.062303,19.8856735 21.0718078,20.3202609 20.8089014,20.5995959 C20.545995,20.878931 20.1056028,20.9021564 19.8139559,20.6520674 L19.7745731,20.6160733 L15.0880166,15.9968232 L10.2224472,20.793221 C9.95017541,21.061651 9.51126549,21.0697551 9.22898468,20.8115645 C8.94670386,20.5533738 8.92216072,20.1213682 9.17343184,19.8337297 L9.20959244,19.7949125 L14.0755199,14.9985147 L9.20995046,10.2028227 C8.93958191,9.93419166 8.93225506,9.50319958 9.19334097,9.22579143 C9.45442688,8.94838328 9.89101773,8.92327517 10.1830643,9.16887296 L10.1830643,9.16887296 Z" id="路径" fill="#FFFFFF" fill-rule="nonzero"></path>
                </g>
            </g>
        </g>
    </g>
</svg>