<?xml version="1.0" encoding="UTF-8"?>
<svg width="30px" height="30px" viewBox="0 0 30 30" version="1.1" xmlns="http://www.w3.org/2000/svg" xmlns:xlink="http://www.w3.org/1999/xlink">
    <title>切片</title>
    <g id="页面-1" stroke="none" stroke-width="1" fill="none" fill-rule="evenodd">
        <g id="登录" transform="translate(-1245.000000, -595.000000)" fill="#7076ED" fill-rule="nonzero">
            <g id="编组-2" transform="translate(1235.000000, 585.000000)">
                <g id="用户名" transform="translate(10.000000, 10.000000)">
                    <g id="编组" transform="translate(8.000000, 6.000000)">
                        <path d="M12.25,18 L1.75,18 C0.7875,18 0,17.19 0,16.2 L0,9 C0,8.01 0.7875,7.2 1.75,7.2 L12.25,7.2 C13.2125,7.2 14,8.01 14,9 L14,16.2 C14,17.19 13.2125,18 12.25,18 Z M1.75,8.4 C1.42916667,8.4 1.16666667,8.67 1.16666667,9 L1.16666667,16.2 C1.16666667,16.53 1.42916667,16.8 1.75,16.8 L12.25,16.8 C12.5708333,16.8 12.8333333,16.53 12.8333333,16.2 L12.8333333,9 C12.8333333,8.67 12.5708333,8.4 12.25,8.4 L1.75,8.4 Z M11.375,7.8 C11.0541667,7.8 10.7916667,7.53 10.7916667,7.2 L10.7916667,5.1 C10.7916667,2.94 9.1,1.2 7,1.2 C4.9,1.2 3.20833333,2.94 3.20833333,5.1 L3.20833333,7.2 C3.20833333,7.53 2.94583333,7.8 2.625,7.8 C2.30416667,7.8 2.04166667,7.53 2.04166667,7.2 L2.04166667,5.1 C2.04166667,2.28 4.25833333,0 7,0 C9.74166667,0 11.9583333,2.28 11.9583333,5.1 L11.9583333,7.2 C11.9583333,7.53 11.6958333,7.8 11.375,7.8 Z" id="形状"></path>
                    </g>
                </g>
            </g>
        </g>
    </g>
</svg>