<?xml version="1.0" encoding="UTF-8"?>
<svg width="30px" height="30px" viewBox="0 0 30 30" version="1.1" xmlns="http://www.w3.org/2000/svg" xmlns:xlink="http://www.w3.org/1999/xlink">
    <title>切片</title>
    <g id="页面-1" stroke="none" stroke-width="1" fill="none" fill-rule="evenodd">
        <g id="登录" transform="translate(-1245.000000, -515.000000)" fill="#7076ED" fill-rule="nonzero">
            <g id="编组-2" transform="translate(1235.000000, 505.000000)">
                <g id="用户名" transform="translate(10.000000, 10.000000)">
                    <g id="编组" transform="translate(7.000000, 6.000000)">
                        <path d="M8,10.8 C4.92307692,10.8 2.46153846,8.4 2.46153846,5.4 C2.46153846,2.4 4.92307692,0 8,0 C11.0769231,0 13.5384615,2.4 13.5384615,5.4 C13.5384615,8.4 11.0769231,10.8 8,10.8 Z M8,1.2 C5.66153846,1.2 3.69230769,3.12 3.69230769,5.4 C3.69230769,7.68 5.66153846,9.6 8,9.6 C10.3384615,9.6 12.3076923,7.68 12.3076923,5.4 C12.3076923,3.12 10.3384615,1.2 8,1.2 Z" id="形状"></path>
                        <path d="M15.3846154,18 C15.0153846,18 14.7692308,17.76 14.7692308,17.4 C14.7692308,13.8 11.6923077,10.8 8,10.8 C4.30769231,10.8 1.23076923,13.8 1.23076923,17.4 C1.23076923,17.76 0.984615385,18 0.615384615,18 C0.246153846,18 0,17.76 0,17.4 C0,13.08 3.56923077,9.6 8,9.6 C12.4307692,9.6 16,13.08 16,17.4 C16,17.76 15.7538462,18 15.3846154,18 Z" id="路径"></path>
                    </g>
                </g>
            </g>
        </g>
    </g>
</svg>