<?xml version="1.0" encoding="UTF-8"?>
<svg width="30px" height="30px" viewBox="0 0 30 30" version="1.1" xmlns="http://www.w3.org/2000/svg" xmlns:xlink="http://www.w3.org/1999/xlink">
    <title>切片</title>
    <g id="页面-1" stroke="none" stroke-width="1" fill="none" fill-rule="evenodd">
        <g id="患者群组-患者列表" transform="translate(-1810.000000, -39.000000)" fill="#9699DC" fill-rule="nonzero">
            <g id="顶" transform="translate(300.000000, 0.000000)">
                <g id="退出" transform="translate(1510.000000, 39.000000)">
                    <g id="编组" transform="translate(5.000000, 6.000000)">
                        <path d="M11,18 L1.81818182,18 C0.818181816,18 0,17.2058824 0,16.2352941 L0,1.76470588 C0,0.794117646 0.818181816,0 1.81818182,0 L11,0 C11.5454545,0 11.9090909,0.35294118 11.9090909,0.882352932 C11.9090909,1.41176468 11.5454545,1.76470588 11,1.76470588 L1.81818182,1.76470588 L1.81818182,16.3235294 L11,16.3235294 C11.5454545,16.3235294 11.9090909,16.6764706 11.9090909,17.2058824 C11.9090909,17.6470588 11.5454545,18 11,18 L11,18 Z M14.2727273,13.6764706 C13.9090909,13.3235294 13.9090909,12.7941176 14.2727273,12.4411765 L17.7272727,9.08823529 L13.6363636,4.94117647 L14.2727273,4.32352941 C14.6363636,3.97058823 15.1818182,3.97058823 15.5454545,4.32352941 L19.7272727,8.38235294 C20.0909091,8.73529412 20.0909091,9.26470589 19.7272727,9.61764706 L15.5454545,13.6764706 C15.2727273,14.0294118 14.6363636,14.0294118 14.2727273,13.6764706 Z" id="形状"></path>
                        <path d="M18.2727273,9.88235295 L7.90909091,9.88235295 C7.36363636,9.88235295 7,9.52941177 7,9 C7,8.47058823 7.36363636,8.11764705 7.90909091,8.11764705 L18.2727273,8.11764705 L18.2727273,9.88235295 L18.2727273,9.88235295 Z" id="路径"></path>
                    </g>
                </g>
            </g>
        </g>
    </g>
</svg>