<?xml version="1.0" encoding="UTF-8"?>
<svg width="30px" height="30px" viewBox="0 0 30 30" version="1.1" xmlns="http://www.w3.org/2000/svg" xmlns:xlink="http://www.w3.org/1999/xlink">
    <title>切片</title>
    <g id="页面-1" stroke="none" stroke-width="1" fill-rule="evenodd">
        <g id="随访管理-新建计划-人工导入" transform="translate(-1746.000000, -303.000000)" fill-rule="nonzero">
            <g id="计划" transform="translate(330.000000, 268.000000)">
                <g id="群组" transform="translate(1416.000000, 35.000000)">
                    <g id="编组" transform="translate(6.000000, 8.000000)">
                        <path d="M2.70152986,3.46686127 C2.70143141,4.7054199 3.3874974,5.84993584 4.50127033,6.46924252 C5.61504326,7.08854921 6.98729652,7.08854921 8.10106945,6.46924252 C9.21484238,5.84993584 9.90090837,4.7054199 9.90080992,3.46686127 C9.90090837,2.22830264 9.21484238,1.0837867 8.10106945,0.464480015 C6.98729652,-0.154826672 5.61504326,-0.154826672 4.50127033,0.464480015 C3.3874974,1.0837867 2.70143141,2.22830264 2.70152986,3.46686127 Z" id="路径"></path>
                        <path d="M5.39946005,7.80010614 L7.19928008,7.80010614 C10.1813195,7.80010614 12.5987401,10.1281779 12.5987401,13 L0,13 C0,10.1281779 2.41742061,7.80010614 5.39946005,7.80010614 Z" id="路径"></path>
                        <path d="M12.6005399,7.80010614 C15.5035194,7.80046947 17.8866388,10.0112862 17.9955005,12.805004 L18,13 L13.4986501,13 C13.4999462,10.8770392 12.34783,8.90815145 10.4614539,7.80963929 C10.5730427,7.80357275 10.6864314,7.80010614 10.8007199,7.80010614 L12.6005399,7.80010614 L12.6005399,7.80010614 Z M10.8007199,0.000260062635 C12.2641485,0.00173079648 13.5809948,0.856279691 14.1318596,2.16196157 C14.6827244,3.46764345 14.3579482,4.96453873 13.3102944,5.94855925 C12.2626406,6.93257977 10.7006637,7.20783846 9.3590641,6.64486307 C10.2794973,5.82598555 10.8022478,4.67362856 10.8007199,3.46686127 C10.80224,2.26070359 10.2802184,1.1088293 9.36086392,0.289726121 C9.81474052,0.0980078454 10.3051046,-0.000572263958 10.8007199,0.000260062635 L10.8007199,0.000260062635 Z" id="形状"></path>
                    </g>
                </g>
            </g>
        </g>
    </g>
</svg>