<?xml version="1.0" encoding="UTF-8"?>
<svg width="50px" height="40px" viewBox="0 0 50 40" version="1.1" xmlns="http://www.w3.org/2000/svg" xmlns:xlink="http://www.w3.org/1999/xlink">
    <title>切片</title>
    <g id="页面-1" stroke="none" stroke-width="1" fill="none" fill-rule="evenodd">
        <g id="患者管理-患者高级检索" transform="translate(-1202.000000, -358.000000)">
            <g id="检索" transform="translate(330.000000, 138.000000)">
                <g id="筛选" transform="translate(50.000000, 100.000000)">
                    <g id="加" transform="translate(822.000000, 120.000000)">
                        <rect id="矩形" stroke="#6067F3" fill="#F6F8FE" x="0.5" y="0.5" width="49" height="39" rx="10"></rect>
                        <path d="M34.2255263,21 L15.7744737,21 C15.3464091,21 15,20.5522606 15,20 C15,19.4477394 15.3464091,19 15.7744737,19 L34.2255263,19 C34.6535909,19 35,19.4477394 35,20 C35,20.5522606 34.6535909,21 34.2255263,21 Z" id="路径" fill="#6067F3" fill-rule="nonzero"></path>
                        <path d="M34.2255263,21 L15.7744737,21 C15.3464091,21 15,20.5522606 15,20 C15,19.4477394 15.3464091,19 15.7744737,19 L34.2255263,19 C34.6535909,19 35,19.4477394 35,20 C35,20.5522606 34.6535909,21 34.2255263,21 Z" id="路径" fill="#6067F3" fill-rule="nonzero" transform="translate(25.000000, 20.000000) rotate(90.000000) translate(-25.000000, -20.000000) "></path>
                    </g>
                </g>
            </g>
        </g>
    </g>
</svg>