<?xml version="1.0" encoding="UTF-8"?>
<svg width="22px" height="23px" viewBox="0 0 22 23" version="1.1" xmlns="http://www.w3.org/2000/svg" xmlns:xlink="http://www.w3.org/1999/xlink">
    <title>切片</title>
    <g id="页面-1" stroke="none" stroke-width="1" fill-rule="evenodd">
        <g id="患者管理-人工导入" transform="translate(-474.000000, -231.000000)"  fill-rule="nonzero">
            <g id="计划" transform="translate(330.000000, 138.000000)">
                <g id="编组" transform="translate(50.000000, 90.000000)">
                    <g id="问号" transform="translate(94.000000, 3.920089)">
                        <g id="编组" transform="translate(3.000000, 3.000000)">
                            <path d="M8,0 C5.95355066,0 3.90711962,0.777139828 2.34083795,2.34286146 C-0.780279315,5.46286273 -0.780279315,10.5371373 2.34083795,13.6571385 C3.90711962,15.2228602 5.95355066,16 8,16 C10.0464493,16 12.0928987,15.2228602 13.6591621,13.6571385 C16.7802793,10.5371373 16.7802793,5.46286273 13.6591621,2.34286146 C12.0928987,0.777139828 10.0464493,0 8,0 Z M8,0.800005483 C8.93747978,0.800005483 9.85208574,0.982857608 10.7095345,1.3257145 C11.6012849,1.69143704 12.4015583,2.21714605 13.0875173,2.91428349 C13.7849041,3.59999725 14.3108195,4.40000273 14.6766545,5.29141601 C15.0196341,6.14855821 15.2025516,7.06283715 15.2025516,7.99998172 C15.2025516,8.93712629 15.0196341,9.85140523 14.6766545,10.7085474 C14.3108195,11.599979 13.7849041,12.3999662 13.0875173,13.0856799 C12.4015583,13.7828174 11.6012667,14.3085447 10.7095345,14.6742489 C9.85208574,15.0171058 8.93747978,15.199958 8,15.199958 C7.06252022,15.199958 6.14791426,15.0171058 5.29046546,14.6742489 C4.39871505,14.3085264 3.59844171,13.7828174 2.91248267,13.0856799 C2.21509585,12.3999662 1.68918052,11.5999607 1.32334546,10.7085474 C0.980365934,9.85140523 0.797448404,8.93712629 0.797448404,7.99998172 C0.797448404,7.06283715 0.980365934,6.14855821 1.32334546,5.29141601 C1.68919881,4.39998446 2.21509587,3.59999726 2.91248267,2.91428349 C3.5984417,2.21714603 4.39873333,1.69141875 5.29046546,1.3257145 C6.14791426,0.982857608 7.0625202,0.800005483 8,0.800005483 Z" id="形状"></path>
                            <path d="M8,10.9028415 C7.66844826,10.9028415 7.38264419,11.1771197 7.38264419,11.5199766 C7.38264419,11.8514098 7.66846654,12.125688 8,12.125688 C8.34297952,12.125688 8.61735581,11.8514098 8.61735581,11.5199766 C8.61737409,11.177138 8.34297951,10.9028415 8,10.9028415 Z M8.01144605,3.87427544 C7.2568838,3.87427544 6.65095576,4.06856954 6.19366192,4.47998683 C5.73634981,4.87998043 5.45054572,5.46284444 5.35908696,6.22856058 L6.39945328,6.35427599 C6.47948427,5.78285394 6.67382959,5.35999468 6.95965194,5.09714018 C7.24547429,4.82286199 7.5998816,4.69714658 8.02289209,4.69714658 C8.46875816,4.69714658 8.84603928,4.84570937 9.15471719,5.14285322 C9.45196733,5.42857337 9.60058326,5.77143026 9.60058326,6.17142386 C9.60058326,6.37714164 9.55485387,6.58285944 9.45196733,6.76571157 C9.34908078,6.94856369 9.12041559,7.18857083 8.77743606,7.49713836 C8.42302877,7.80570589 8.18293579,8.03428935 8.04574765,8.19427582 C7.87425789,8.4114173 7.73706974,8.62855876 7.65703876,8.84570024 C7.54270615,9.13142039 7.48554899,9.47427728 7.48554899,9.8628472 L7.49697676,10.1714147 L8.45731209,10.1714147 C8.46873986,9.77142113 8.4916137,9.47427728 8.53734308,9.30284883 C8.59450024,9.11999671 8.66310346,8.95999195 8.76599,8.82285286 C8.86887654,8.68571377 9.0746679,8.46857229 9.40621966,8.18285212 C9.88638733,7.74856918 10.2179391,7.38284663 10.3894288,7.08570278 C10.5494908,6.78855893 10.6409496,6.45712574 10.6409496,6.10284517 C10.6409496,5.48571011 10.4008566,4.9599828 9.92068893,4.52569986 C9.45194905,4.09141692 8.8117194,3.87427544 8.01144605,3.87427544 Z" id="形状"></path>
                        </g>
                    </g>
                </g>
            </g>
        </g>
    </g>
</svg>