<?xml version="1.0" encoding="UTF-8"?>
<svg width="30px" height="30px" viewBox="0 0 30 30" version="1.1" xmlns="http://www.w3.org/2000/svg" xmlns:xlink="http://www.w3.org/1999/xlink">
    <title>切片</title>
    <g id="页面-1" stroke="none" stroke-width="1"  fill-rule="evenodd">
        <g id="驾驶舱-随访列表" transform="translate(-40.000000, -578.000000)"  fill-rule="nonzero">
            <g id="素材管理" transform="translate(0.000000, 571.000000)">
                <g id="驾驶舱" transform="translate(40.000000, 7.000000)">
                    <path d="M24,18.375 L24,21.75 C24,22.9875 22.9875,24 21.75,24 L8.25,24 C7.0125,24 6,22.9875 6,21.75 L6,18.375 L8.25,8.25 C8.5875,7.125 9.2625,6 10.5,6 L19.5,6 C20.7375,6 21.4125,7.125 21.75,8.25 L24,18.375 C24,18.375 24,18.375 24,18.375 Z M19.5,8.3625 L19.5,8.3625 L10.5,8.25 L10.5,8.3625 L8.5875,18.375 L12.75,18.375 L12.75,18.375 L12.75,18.375 L12.75,19.5 C12.75,20.175 13.2,20.625 13.875,20.625 L16.125,20.625 C16.8,20.625 17.25,20.175 17.25,19.5 L17.25,18.375 L21.4125,18.375 L19.5,8.3625 Z M10.5,15 C10.5,14.325 10.95,13.875 11.625,13.875 L18.375,13.875 C19.05,13.875 19.5,14.325 19.5,15 C19.5,15.675 19.05,16.125 18.375,16.125 L11.625,16.125 C10.95,16.125 10.5,15.675 10.5,15 Z M17.25,12.75 L12.75,12.75 C12.075,12.75 11.625,12.3 11.625,11.625 C11.625,10.95 12.075,10.5 12.75,10.5 L17.25,10.5 C17.925,10.5 18.375,10.95 18.375,11.625 C18.375,12.3 17.925,12.75 17.25,12.75 Z" id="形状"></path>
                </g>
            </g>
        </g>
    </g>
</svg>