<?xml version="1.0" encoding="UTF-8"?>
<svg width="30px" height="30px" viewBox="0 0 30 30" version="1.1" xmlns="http://www.w3.org/2000/svg" xmlns:xlink="http://www.w3.org/1999/xlink">
    <title>切片</title>
    <g id="页面-1" stroke="none" stroke-width="1"  fill-rule="evenodd">
        <g id="驾驶舱-随访列表" transform="translate(-40.000000, -524.000000)"  fill-rule="nonzero">
            <g id="患者管理" transform="translate(0.000000, 517.000000)">
                <g id="驾驶舱" transform="translate(40.000000, 7.000000)">
                    <path d="M16.1840106,16 C20.5011455,16 23.9978295,19.2080679 24,23.4309979 L24,23.4309979 L24,23.9384289 C24,24.5244161 23.5138068,25 22.9147474,25 L22.9147474,25 L7.08525262,25 C6.48619317,25 6,24.5244161 6,23.9384289 L6,23.9384289 L6,23.4309979 C6,19.2101911 9.49885446,16 13.8138189,16 L13.8138189,16 Z M19.0794646,18.3757962 L18.3328108,18.3757962 C18.1266128,18.3757962 17.9594839,18.4798301 17.9594839,18.6050955 L17.9594839,18.6050955 L17.9594839,19.7791932 L16.7244664,19.7791932 C16.5985771,19.7791932 16.4943929,19.9447983 16.4943929,20.1507431 L16.4943929,20.1507431 L16.4943929,20.8938429 C16.4943929,21.0997877 16.5964066,21.2653928 16.7244664,21.2653928 L16.7244664,21.2653928 L17.9594839,21.2653928 L17.9594839,22.329087 C17.9594839,22.4564756 18.1266128,22.5583864 18.3328108,22.5583864 L18.3328108,22.5583864 L19.0816351,22.5583864 C19.2878331,22.5583864 19.454962,22.4543524 19.454962,22.329087 L19.454962,22.329087 L19.454962,21.2653928 L20.7355601,21.2653928 C20.8614494,21.2653928 20.9656337,21.0997877 20.9656337,20.8938429 L20.9656337,20.8938429 L20.9634632,20.8938429 L20.9634632,20.1507431 C20.9634632,19.9447983 20.8614494,19.7791932 20.7333896,19.7791932 L20.7333896,19.7791932 L19.4527915,19.7791932 L19.4527915,18.6050955 C19.4527915,18.477707 19.2856626,18.3757962 19.0794646,18.3757962 L19.0794646,18.3757962 Z M14.5,5 C16.9852814,5 19,7.01471863 19,9.5 C19,11.9852814 16.9852814,14 14.5,14 C12.0147186,14 10,11.9852814 10,9.5 C10,7.01471863 12.0147186,5 14.5,5 Z" id="形状结合"></path>
                </g>
            </g>
        </g>
    </g>
</svg>