<?xml version="1.0" encoding="UTF-8"?>
<svg width="30px" height="30px" viewBox="0 0 30 30" version="1.1" xmlns="http://www.w3.org/2000/svg" xmlns:xlink="http://www.w3.org/1999/xlink">
    <title>切片</title>
    <g id="页面-1" stroke="none" stroke-width="1" fill-rule="evenodd">
        <g id="驾驶舱-随访列表" transform="translate(-40.000000, -217.000000)"  fill-rule="nonzero">
            <g id="驾驶舱" transform="translate(0.000000, 210.000000)">
                <g id="形状" transform="translate(40.000000, 7.000000)">
                    <path d="M15,24.9995349 C20.5232558,24.9995349 25,20.5228948 25,14.9997674 C25,9.47710517 20.5232558,5 15,5 C9.47674419,5 5,9.47710519 5,15.0002326 C5,20.5233599 9.47674419,25 15,25 L15,24.9995349 Z M23.4246512,16.519267 C23.1156406,18.2665761 22.2909886,19.8815023 21.0567442,21.1563685 C19.9060465,22.3419223 18.4297674,23.1912049 16.7776744,23.5507314 C16.8609302,22.6944722 16.9604651,21.507058 17.1172093,20.4935932 C17.5488372,17.7020302 18.4209302,16.4890352 20.8595349,16.0155578 C21.5441861,15.8825376 22.2623256,15.8792819 22.9804651,15.8955606 C23.3362791,15.8834678 23.5395349,16.0327667 23.4246512,16.519267 Z M6.86976744,12.1263459 C7.28698558,10.8319688 7.99626927,9.65086468 8.94279069,8.67433316 C10.5046512,7.06367294 12.752093,6.25857538 15,6.25857538 C17.2465116,6.25857538 19.4939535,7.06367294 21.055814,8.67433316 C21.9869767,9.6324504 22.704186,10.8105626 23.1288372,12.1263459 C23.2465116,12.5681961 23.0897674,12.7770284 22.66,12.752843 C21.2502326,12.6970303 18.212093,12.6523802 17.5883721,12.6202879 C18.1463748,13.2754052 18.4515873,14.1085336 18.4488372,14.9690705 C18.4488372,15.950443 18.0627907,16.8392596 17.4386047,17.4825004 C17.2153488,17.7122625 16.9627907,17.9103974 16.6855814,18.0703937 C15.6426133,18.6740924 14.3564564,18.6740924 13.3134884,18.0703937 C13.0363866,17.9101569 12.7828145,17.7123127 12.56,17.4825004 C11.9086855,16.8082781 11.5462261,15.9064893 11.5497674,14.9690705 C11.5497674,14.0690914 11.8748837,13.2463199 12.4106977,12.6202879 C11.7869767,12.6528453 8.7488372,12.6970303 7.33906975,12.752843 C6.90930232,12.7765633 6.75302324,12.5681961 6.86976744,12.1263459 L6.86976744,12.1263459 Z M7.01860465,15.8955606 C7.73674419,15.8792819 8.45534884,15.8825376 9.13953488,16.0155578 C11.5786046,16.4890352 12.4511628,17.7020302 12.8823256,20.4935932 C13.0386047,21.5075231 13.1386047,22.6944722 13.2218605,23.5507314 C11.5697674,23.19167 10.0934884,22.3414572 8.94279069,21.1563685 C7.70883284,19.8813594 6.88436514,18.2664769 6.57534883,16.519267 C6.45999998,16.0327667 6.66279068,15.8834678 7.01906976,15.8955606 L7.01860465,15.8955606 Z M13.0637209,16.9676287 C13.569505,17.4949983 14.2685841,17.7931563 14.9993023,17.7931563 C15.7300206,17.7931563 16.4290997,17.4949983 16.9348837,16.9676287 C17.451944,16.4324087 17.7396502,15.7164975 17.736766,14.9723262 C17.736766,14.1937397 17.4306977,13.4886398 16.9348837,12.9784191 C15.9362791,11.9491407 14.0623256,11.9491407 13.0637209,12.9784191 C12.5470135,13.5134549 12.2594882,14.2289974 12.2623048,14.9727913 C12.2623048,15.7513779 12.5683721,16.4569429 13.0637209,16.9676287 L13.0637209,16.9676287 Z M14.5706977,13.8928164 C14.8449523,13.7774612 15.1541174,13.7774612 15.4283721,13.8928164 C15.8562375,14.0789571 16.1317049,14.5024898 16.1283721,14.9690705 C16.1313399,15.408553 15.8872277,15.8124612 15.4967442,16.0141625 C15.1839984,16.171044 14.8155365,16.171044 14.5027907,16.0141625 C14.1118701,15.8127988 13.8673358,15.4087872 13.8702326,14.9690705 C13.8702326,14.4830353 14.16,14.0667659 14.5706977,13.8928164 L14.5706977,13.8928164 Z"></path>
                </g>
            </g>
        </g>
    </g>
</svg>