<?xml version="1.0" encoding="UTF-8"?>
<svg width="30px" height="30px" viewBox="0 0 30 30" version="1.1" xmlns="http://www.w3.org/2000/svg" xmlns:xlink="http://www.w3.org/1999/xlink">
    <title>切片</title>
    <g id="页面-1" stroke="none" stroke-width="1"  fill-rule="evenodd">
        <g id="驾驶舱-随访列表" transform="translate(-40.000000, -632.000000)"  fill-rule="nonzero">
            <g id="任务管理" transform="translate(0.000000, 625.000000)">
                <g id="驾驶舱" transform="translate(40.000000, 7.000000)">
                    <path d="M21.7463918,7.476402 C22.5161512,7.476402 23,8.1426985 23,8.808995 L23,8.808995 L23,23.4342032 C23,24.1782343 22.2302405,25 21.537457,25 L21.537457,25 L8.47353952,25 C7.62680412,25 7,24.1116047 7,23.4342032 L7,23.4342032 L7,8.88672959 C7,8.06496391 7.41786942,7.46529706 8.33058419,7.54303165 L8.33058419,7.54303165 L8.70446735,7.54303165 C9.01237113,7.56524153 9.25429553,7.83176013 9.24329897,8.1426985 L9.24329897,8.1426985 L9.24329897,10.7523598 C9.24329897,11.0521932 9.45223368,11.3520267 9.80412371,11.3520267 L9.80412371,11.3520267 L20.2068729,11.285397 C20.4927835,11.285397 20.7676976,11.0632982 20.7676976,10.6857301 L20.7676976,10.6857301 L20.7676976,8.07606885 C20.7676976,7.69850083 21.0426117,7.476402 21.3945017,7.476402 L21.3945017,7.476402 Z M15.4893471,18.1149361 L11.2446735,18.1149361 C10.8158076,18.1149361 10.4749141,18.4591893 10.4749141,18.8922821 C10.4749141,19.3142699 10.8158076,19.669628 11.2446735,19.669628 L11.2446735,19.669628 L15.4893471,19.669628 C15.9182131,19.669628 16.2591065,19.3142699 16.2591065,18.8922821 C16.2591065,18.4591893 15.9182131,18.1149361 15.4893471,18.1149361 L15.4893471,18.1149361 Z M18.6893471,15.0166574 L11.1786942,15.0166574 C10.7608247,15.0277624 10.4199313,15.3942254 10.4419244,15.8273182 C10.452921,16.2493059 10.8158076,16.5935591 11.2446735,16.5713493 L11.2446735,16.5713493 L18.6893471,16.5713493 C19.1182131,16.5713493 19.4701031,16.2159911 19.4591065,15.7940033 C19.4591065,15.3609106 19.1182131,15.0166574 18.6893471,15.0166574 L18.6893471,15.0166574 Z M16.6329897,5 C17.2487973,5.01110494 17.7436426,5.49972238 17.7546392,6.12159911 C17.7546392,6.42143254 17.9635739,6.72126596 18.3154639,6.72126596 L18.3154639,6.72126596 L18.6783505,6.72126596 C18.9972509,6.73237091 19.2391753,6.99888951 19.2281787,7.32093282 L19.2281787,7.32093282 L19.2281787,9.10882843 C19.2281787,9.40866185 19.019244,9.70849528 18.667354,9.70849528 L18.667354,9.70849528 L11.2666667,9.70849528 C10.9917526,9.70849528 10.7058419,9.48639645 10.7058419,9.11993337 L10.7058419,9.11993337 L10.7058419,7.33203776 C10.7058419,7.03220433 10.9147766,6.73237091 11.2666667,6.73237091 L11.2666667,6.73237091 L11.6845361,6.73237091 C11.9704467,6.73237091 12.2453608,6.51027207 12.2453608,6.13270405 C12.2563574,5.51082732 12.7512027,5.01110494 13.3670103,5 L13.3670103,5 Z M15.038488,6.13270405 C14.4116838,6.13270405 13.8508591,6.73237091 13.8508591,7.39866741 C13.8508591,8.06496391 14.4116838,8.66463076 15.038488,8.66463076 C15.6652921,8.66463076 16.2261168,8.22043309 16.2261168,7.39866741 C16.2261168,6.73237091 15.742268,6.13270405 15.038488,6.13270405 Z" id="形状结合"></path>
                </g>
            </g>
        </g>
    </g>
</svg>