<?xml version="1.0" encoding="UTF-8"?>
<svg width="30px" height="30px" viewBox="0 0 30 30" version="1.1" xmlns="http://www.w3.org/2000/svg" xmlns:xlink="http://www.w3.org/1999/xlink">
    <title>切片</title>
    <g id="页面-1" stroke="none" stroke-width="1" fill-rule="evenodd">
        <g id="驾驶舱-随访列表" transform="translate(-40.000000, -371.000000)"  fill-rule="nonzero">
            <g id="随访管理" transform="translate(0.000000, 364.000000)">
                <g id="驾驶舱" transform="translate(40.000000, 7.000000)">
                    <path d="M20.4320988,6 C21.2748971,6 21.9135802,6.24092971 22.3481481,6.72278912 C22.782716,7.20464853 23,7.79251701 23,8.48639456 L23,18.7210884 C23,19.042328 22.8617284,19.3314437 22.5851852,19.5884354 L19.2864198,22.6723356 C19.1152263,22.813681 18.9703704,22.9036281 18.8518519,22.9421769 C18.7333333,22.9807256 18.581893,23 18.3975309,23 L9.52839506,23 C9.2255144,23 8.92263374,22.9389645 8.61975309,22.8168934 C8.31687243,22.6948224 8.04691358,22.521353 7.80987654,22.2964853 C7.57283951,22.0716175 7.37860082,21.8017763 7.22716049,21.4869615 C7.07572016,21.1721466 7,20.8219955 7,20.4365079 L7,8.48639456 C7,7.72826909 7.21399177,7.12433862 7.64197531,6.67460317 C8.06995885,6.22486772 8.67901235,6 9.4691358,6 L20.4320988,6 Z M16.2839506,18.085034 C16.455144,18.085034 16.6,18.0272109 16.7185185,17.9115646 C16.837037,17.7959184 16.8962963,17.6545729 16.8962963,17.4875283 C16.8962963,17.3076342 16.837037,17.1630763 16.7185185,17.0538549 C16.6,16.9446334 16.455144,16.8900227 16.2839506,16.8900227 L10.1012346,16.8900227 C9.93004115,16.8900227 9.78518519,16.9446334 9.66666667,17.0538549 C9.54814815,17.1630763 9.48888889,17.3076342 9.48888889,17.4875283 C9.48888889,17.6545729 9.54814815,17.7959184 9.66666667,17.9115646 C9.78518519,18.0272109 9.93004115,18.085034 10.1012346,18.085034 L16.2839506,18.085034 Z M18.7530864,14.4614512 C18.9242798,14.4614512 19.0691358,14.4036281 19.1876543,14.2879819 C19.3061728,14.1723356 19.3654321,14.0309902 19.3654321,13.8639456 C19.3654321,13.696901 19.3061728,13.5555556 19.1876543,13.4399093 C19.0691358,13.324263 18.9242798,13.2664399 18.7530864,13.2664399 L10.1012346,13.2664399 C9.93004115,13.2664399 9.78518519,13.324263 9.66666667,13.4399093 C9.54814815,13.5555556 9.48888889,13.696901 9.48888889,13.8639456 C9.48888889,14.0309902 9.54814815,14.1723356 9.66666667,14.2879819 C9.78518519,14.4036281 9.93004115,14.4614512 10.1012346,14.4614512 L18.7530864,14.4614512 Z M19.9777778,10.8571429 C20.1489712,10.8571429 20.2938272,10.7993197 20.4123457,10.6836735 C20.5308642,10.5680272 20.5901235,10.420257 20.5901235,10.2403628 C20.5901235,10.0733182 20.5308642,9.93197279 20.4123457,9.81632653 C20.2938272,9.70068027 20.1489712,9.64285714 19.9777778,9.64285714 L10.1012346,9.64285714 C9.93004115,9.64285714 9.78518519,9.70068027 9.66666667,9.81632653 C9.54814815,9.93197279 9.48888889,10.0733182 9.48888889,10.2403628 C9.48888889,10.420257 9.54814815,10.5680272 9.66666667,10.6836735 C9.78518519,10.7993197 9.93004115,10.8571429 10.1012346,10.8571429 L19.9777778,10.8571429 Z" id="形状"></path>
                </g>
            </g>
        </g>
    </g>
</svg>