<?xml version="1.0" encoding="UTF-8"?>
<svg width="30px" height="30px" viewBox="0 0 30 30" version="1.1" xmlns="http://www.w3.org/2000/svg" xmlns:xlink="http://www.w3.org/1999/xlink">
    <title>切片</title>
    <g id="页面-1" stroke="none" stroke-width="1"  fill-rule="evenodd">
        <g id="驾驶舱-随访列表" transform="translate(-40.000000, -686.000000)"  fill-rule="nonzero">
            <g id="基础设置" transform="translate(0.000000, 679.000000)">
                <g id="设置2" transform="translate(40.000000, 7.000000)">
                    <path d="M12.6616916,15 C12.6616916,16.2702549 13.6863135,17.3 14.9502488,17.3 C16.214184,17.3 17.238806,16.2702549 17.238806,15 C17.238806,13.7297451 16.214184,12.7 14.9502488,12.7 C13.6863135,12.7 12.6616916,13.7297451 12.6616916,15 L12.6616916,15 Z" id="路径"></path>
                    <path d="M23.8059701,12.8 L22.9104478,12.8 C21.9154229,12.8 21.4179104,11.6 22.1144279,10.9 L22.7114428,10.3 C23.1094528,9.9 23.1094528,9.20000002 22.7114428,8.7 L21.119403,7.1 C20.721393,6.69999999 20.0248756,6.69999999 19.5273632,7.1 L18.9303483,7.7 C18.2338309,8.40000001 17.039801,7.89999999 17.039801,6.90000001 L17.039801,6.10000001 C17.039801,5.5 16.5422886,5 15.9452736,5 L13.7562189,5 C13.159204,5 12.6616916,5.5 12.6616916,6.10000001 L12.6616916,7 C12.6616916,8 11.4676617,8.5 10.7711443,7.80000001 L10.2736319,7.1 C9.8756219,6.69999999 9.1791045,6.69999999 8.68159205,7.1 L7.08955224,8.7 C6.69154228,9.10000001 6.69154228,9.8 7.08955224,10.3 L7.68656716,10.9 C8.38308458,11.6 7.88557213,12.8 6.99004977,12.8 L6.09452738,12.8 C5.49751245,12.8 5,13.3 5,13.9 L5,16.1 C5,16.7 5.49751243,17.2 6.09452738,17.2 L6.99004977,17.2 C7.98507465,17.2 8.48258708,18.4 7.78606966,19.1 L7.18905473,19.7 C6.79104478,20.1 6.79104478,20.8 7.18905473,21.3 L8.78109454,22.9 C9.1791045,23.3 9.8756219,23.3 10.3731343,22.9 L10.9701493,22.3 C11.6666667,21.6 12.8606965,22.1 12.8606965,23.1 L12.8606965,23.9 C12.8606965,24.5 13.358209,25 13.9552239,25 L16.1442786,25 C16.7412935,25 17.238806,24.5 17.238806,23.9 L17.238806,23 C17.238806,22 18.4328358,21.5 19.1293532,22.2 L19.7263682,22.8 C20.1243781,23.2 20.8208955,23.2 21.318408,22.8 L22.9104478,21.2 C23.3084577,20.8 23.3084577,20.1 22.9104478,19.6 L22.3134328,19 C21.6169154,18.3 22.1144279,17.1 23.1094528,17.1 L23.9054726,17.1 C24.5024876,17.1 25,16.6 25,16 L25,13.8 C24.9004975,13.3 24.4029851,12.8 23.8059701,12.8 L23.8059701,12.8 Z M14.9502488,19.3 C12.5621891,19.3 10.6716418,17.4 10.6716418,15 C10.6716418,12.6 12.5621891,10.7 14.9502488,10.7 C17.3383085,10.7 19.2288557,12.6 19.2288557,15 C19.2288557,17.4 17.3383085,19.3 14.9502488,19.3 Z" id="形状"></path>
                </g>
            </g>
        </g>
    </g>
</svg>